<svg xmlns="http://www.w3.org/2000/svg" xmlns:xlink="http://www.w3.org/1999/xlink" width="500" zoomAndPan="magnify" viewBox="0 0 375 374.999991" height="500" preserveAspectRatio="xMidYMid meet" version="1.2"><defs><clipPath id="cac328a366"><path d="M 138.90625 72.316406 L 236.40625 72.316406 L 236.40625 234.316406 L 138.90625 234.316406 Z M 138.90625 72.316406 "/></clipPath></defs><g id="a42b830c1e"><rect x="0" width="375" y="0" height="374.999991" style="fill:#ffffff;fill-opacity:1;stroke:none;"/><rect x="0" width="375" y="0" height="374.999991" style="fill:#1b27a1;fill-opacity:1;stroke:none;"/><g clip-rule="nonzero" clip-path="url(#cac328a366)"><path style=" stroke:none;fill-rule:evenodd;fill:#ffffff;fill-opacity:1;" d="M 146.21875 167.15625 L 146.792969 200.722656 L 147.371094 234.289062 L 145.058594 234.289062 L 145.632812 200.722656 Z M 152.332031 163.253906 L 152.90625 198.769531 L 153.484375 234.289062 L 151.167969 234.289062 L 151.753906 198.769531 Z M 163.976562 92.015625 L 164.558594 163.152344 L 165.136719 234.289062 L 162.820312 234.289062 L 163.402344 163.152344 Z M 169.738281 89.453125 L 170.316406 161.867188 L 170.894531 234.285156 L 168.578125 234.285156 L 169.15625 161.867188 Z M 175.5 85.867188 L 176.078125 160.074219 L 176.65625 234.285156 L 174.339844 234.285156 L 174.917969 160.074219 Z M 181.261719 83.5625 L 182.417969 234.289062 L 180.101562 234.289062 L 180.679688 158.925781 Z M 187.019531 80.492188 L 188.175781 234.289062 L 185.859375 234.289062 L 186.4375 157.390625 Z M 211.339844 133.875 L 211.917969 184.082031 L 212.492188 234.289062 L 210.179688 234.289062 L 210.753906 184.082031 Z M 217.226562 137.460938 L 217.800781 185.875 L 218.378906 234.289062 L 216.066406 234.289062 L 216.640625 185.875 Z M 223.117188 140.660156 L 223.691406 187.476562 L 224.269531 234.292969 L 221.957031 234.292969 L 222.53125 187.476562 Z M 229.003906 143.21875 L 229.578125 188.75 L 230.15625 234.285156 L 227.84375 234.285156 L 228.417969 188.75 Z M 234.894531 145.269531 L 235.46875 189.78125 L 236.046875 234.292969 L 233.734375 234.292969 L 234.3125 189.78125 Z M 193.710938 77.820312 L 194.289062 110.050781 L 194.863281 142.28125 L 192.550781 142.28125 L 193.125 110.050781 Z M 199.570312 74.683594 L 200.144531 106.996094 L 200.722656 139.304688 L 198.410156 139.304688 L 198.984375 106.996094 Z M 205.425781 72.316406 L 206 104.175781 L 206.578125 136.039062 L 204.265625 136.039062 L 204.84375 104.175781 Z M 140.105469 169.75 L 140.683594 202.019531 L 141.257812 234.289062 L 138.949219 234.289062 L 139.523438 202.019531 Z M 140.105469 169.75 "/></g><g style="fill:#ffffff;fill-opacity:1;"><g transform="translate(122.290705, 256.446634)"><path style="stroke:none" d="M 16.609375 -9.3125 L 6.859375 -5.25 L 6.859375 -2.15625 C 6.859375 -1.476562 6.894531 -0.976562 6.96875 -0.65625 C 7.050781 -0.34375 7.171875 -0.125 7.328125 0 L 0.515625 0 C 0.660156 -0.125 0.773438 -0.34375 0.859375 -0.65625 C 0.941406 -0.976562 0.984375 -1.476562 0.984375 -2.15625 L 0.984375 -16.046875 C 0.984375 -16.722656 0.941406 -17.21875 0.859375 -17.53125 C 0.773438 -17.851562 0.660156 -18.078125 0.515625 -18.203125 L 11.71875 -18.203125 C 13.070312 -18.203125 14.226562 -17.722656 15.1875 -16.765625 C 15.65625 -16.316406 16.007812 -15.789062 16.25 -15.1875 C 16.488281 -14.59375 16.609375 -13.96875 16.609375 -13.3125 Z M 6.859375 -18.125 L 6.859375 -5.328125 L 10.734375 -6.96875 L 10.734375 -16.046875 C 10.734375 -16.628906 10.535156 -17.125 10.140625 -17.53125 C 9.703125 -17.925781 9.195312 -18.125 8.625 -18.125 Z M 6.859375 -18.125 "/></g></g><g style="fill:#ffffff;fill-opacity:1;"><g transform="translate(139.419569, 256.446634)"><path style="stroke:none" d="M 13.15625 -11.4375 L 9.40625 -9.59375 C 9.425781 -9.851562 9.390625 -10.179688 9.296875 -10.578125 C 9.203125 -10.984375 9.050781 -11.332031 8.84375 -11.625 C 8.632812 -11.914062 8.359375 -12.046875 8.015625 -12.015625 C 7.679688 -11.972656 7.40625 -11.832031 7.1875 -11.59375 C 6.96875 -11.351562 6.859375 -11.066406 6.859375 -10.734375 L 6.859375 -2.15625 C 6.859375 -1.476562 6.894531 -0.976562 6.96875 -0.65625 C 7.050781 -0.34375 7.171875 -0.125 7.328125 0 L 0.515625 0 C 0.660156 -0.125 0.773438 -0.34375 0.859375 -0.65625 C 0.941406 -0.976562 0.984375 -1.476562 0.984375 -2.15625 L 0.984375 -14.484375 C 0.984375 -14.484375 1.097656 -14.382812 1.328125 -14.1875 C 1.566406 -13.988281 1.929688 -13.800781 2.421875 -13.625 C 2.921875 -13.445312 3.570312 -13.410156 4.375 -13.515625 C 4.800781 -13.566406 5.226562 -13.660156 5.65625 -13.796875 C 6.082031 -13.941406 6.484375 -14.109375 6.859375 -14.296875 L 6.859375 -11.203125 C 6.898438 -11.335938 6.9375 -11.476562 6.96875 -11.625 C 7 -11.78125 7.050781 -11.914062 7.125 -12.03125 C 7.488281 -12.8125 7.976562 -13.375 8.59375 -13.71875 C 9.207031 -14.070312 9.84375 -14.210938 10.5 -14.140625 C 11.15625 -14.078125 11.734375 -13.8125 12.234375 -13.34375 C 12.742188 -12.882812 13.050781 -12.25 13.15625 -11.4375 Z M 13.15625 -11.4375 "/></g></g><g style="fill:#ffffff;fill-opacity:1;"><g transform="translate(153.091469, 256.446634)"><path style="stroke:none" d="M 8.765625 -14.796875 C 9.785156 -14.796875 10.738281 -14.601562 11.625 -14.21875 C 12.519531 -13.84375 13.3125 -13.3125 14 -12.625 C 14.6875 -11.9375 15.21875 -11.144531 15.59375 -10.25 C 15.976562 -9.363281 16.171875 -8.410156 16.171875 -7.390625 C 16.171875 -6.359375 15.976562 -5.394531 15.59375 -4.5 C 15.21875 -3.613281 14.6875 -2.832031 14 -2.15625 C 13.3125 -1.476562 12.519531 -0.945312 11.625 -0.5625 C 10.738281 -0.1875 9.785156 0 8.765625 0 L 7.90625 0 C 6.882812 0 5.925781 -0.1875 5.03125 -0.5625 C 4.132812 -0.945312 3.347656 -1.476562 2.671875 -2.15625 C 1.992188 -2.832031 1.460938 -3.613281 1.078125 -4.5 C 0.703125 -5.394531 0.515625 -6.359375 0.515625 -7.390625 C 0.515625 -8.410156 0.703125 -9.363281 1.078125 -10.25 C 1.460938 -11.144531 1.992188 -11.9375 2.671875 -12.625 C 3.347656 -13.3125 4.132812 -13.84375 5.03125 -14.21875 C 5.925781 -14.601562 6.882812 -14.796875 7.90625 -14.796875 Z M 10.296875 -2.03125 L 10.296875 -12.734375 C 10.296875 -13.296875 10.101562 -13.757812 9.71875 -14.125 C 9.34375 -14.5 8.882812 -14.6875 8.34375 -14.6875 C 7.8125 -14.6875 7.351562 -14.5 6.96875 -14.125 C 6.582031 -13.757812 6.390625 -13.296875 6.390625 -12.734375 L 6.390625 -2.03125 C 6.390625 -1.488281 6.582031 -1.023438 6.96875 -0.640625 C 7.351562 -0.265625 7.8125 -0.078125 8.34375 -0.078125 C 8.882812 -0.078125 9.34375 -0.265625 9.71875 -0.640625 C 10.101562 -1.023438 10.296875 -1.488281 10.296875 -2.03125 Z M 10.296875 -2.03125 "/></g></g><g style="fill:#ffffff;fill-opacity:1;"><g transform="translate(169.778465, 256.446634)"><path style="stroke:none" d="M 12.53125 -14.796875 C 13.601562 -14.796875 14.578125 -14.460938 15.453125 -13.796875 C 16.328125 -13.128906 17.023438 -12.234375 17.546875 -11.109375 C 18.066406 -9.992188 18.328125 -8.753906 18.328125 -7.390625 C 18.328125 -6.035156 18.066406 -4.796875 17.546875 -3.671875 C 17.023438 -2.554688 16.328125 -1.664062 15.453125 -1 C 14.578125 -0.332031 13.601562 0 12.53125 0 C 11.75 0 11.078125 -0.125 10.515625 -0.375 C 9.953125 -0.625 9.476562 -0.9375 9.09375 -1.3125 C 8.71875 -1.6875 8.421875 -2.054688 8.203125 -2.421875 C 7.984375 -2.796875 7.828125 -3.109375 7.734375 -3.359375 C 7.640625 -3.617188 7.59375 -3.75 7.59375 -3.75 L 7.59375 1.25 C 7.59375 1.925781 7.632812 2.421875 7.71875 2.734375 C 7.8125 3.054688 7.925781 3.28125 8.0625 3.40625 L 1.25 3.40625 C 1.40625 3.28125 1.519531 3.054688 1.59375 2.734375 C 1.675781 2.421875 1.71875 1.925781 1.71875 1.25 L 1.71875 -13 C 1.71875 -13.332031 1.570312 -13.582031 1.28125 -13.75 C 1 -13.925781 0.742188 -13.898438 0.515625 -13.671875 C 0.878906 -14.078125 1.316406 -14.390625 1.828125 -14.609375 C 2.335938 -14.835938 2.863281 -14.941406 3.40625 -14.921875 C 4.425781 -14.921875 5.320312 -14.597656 6.09375 -13.953125 C 6.863281 -13.316406 7.335938 -12.503906 7.515625 -11.515625 C 7.828125 -12.015625 8.210938 -12.515625 8.671875 -13.015625 C 9.128906 -13.523438 9.675781 -13.945312 10.3125 -14.28125 C 10.957031 -14.625 11.695312 -14.796875 12.53125 -14.796875 Z M 9.25 -2.546875 C 9.8125 -2.546875 10.332031 -2.742188 10.8125 -3.140625 C 11.300781 -3.546875 11.703125 -4.109375 12.015625 -4.828125 C 12.328125 -5.554688 12.484375 -6.410156 12.484375 -7.390625 C 12.484375 -8.148438 12.382812 -8.820312 12.1875 -9.40625 C 12 -10 11.75 -10.503906 11.4375 -10.921875 C 10.800781 -11.785156 10.03125 -12.21875 9.125 -12.21875 L 9.046875 -12.21875 C 8.453125 -12.1875 7.953125 -11.9375 7.546875 -11.46875 C 7.554688 -11.34375 7.566406 -11.21875 7.578125 -11.09375 C 7.585938 -10.976562 7.59375 -10.859375 7.59375 -10.734375 L 7.59375 -4.46875 C 7.59375 -3.914062 7.769531 -3.457031 8.125 -3.09375 C 8.476562 -2.726562 8.851562 -2.546875 9.25 -2.546875 Z M 9.25 -2.546875 "/></g></g><g style="fill:#ffffff;fill-opacity:1;"><g transform="translate(188.62282, 256.446634)"><path style="stroke:none" d="M 19.453125 -2.15625 C 19.453125 -1.476562 19.492188 -0.976562 19.578125 -0.65625 C 19.660156 -0.34375 19.773438 -0.125 19.921875 0 L 13.125 0 C 13.269531 -0.125 13.378906 -0.34375 13.453125 -0.65625 C 13.535156 -0.976562 13.578125 -1.476562 13.578125 -2.15625 L 13.578125 -17.984375 L 7.359375 -0.15625 L 0.59375 -18.015625 L 0.59375 -8.03125 C 0.59375 -6.820312 0.726562 -5.6875 1 -4.625 C 1.269531 -3.570312 1.613281 -2.644531 2.03125 -1.84375 C 2.445312 -1.050781 2.890625 -0.4375 3.359375 0 L 0.515625 0 L 0.515625 -18.203125 L 6.65625 -18.203125 L 10.265625 -8.765625 L 13.578125 -18.203125 L 19.921875 -18.203125 C 19.773438 -18.078125 19.660156 -17.851562 19.578125 -17.53125 C 19.492188 -17.21875 19.453125 -16.722656 19.453125 -16.046875 Z M 19.453125 -2.15625 "/></g></g><g style="fill:#ffffff;fill-opacity:1;"><g transform="translate(209.052698, 256.446634)"><path style="stroke:none" d="M 15.15625 -4.578125 C 15.4375 -4.847656 15.660156 -5.132812 15.828125 -5.4375 C 15.378906 -4.15625 14.628906 -3.0625 13.578125 -2.15625 C 12.773438 -1.476562 11.890625 -0.953125 10.921875 -0.578125 C 9.953125 -0.210938 8.945312 -0.0195312 7.90625 0 C 6.882812 0 5.925781 -0.1875 5.03125 -0.5625 C 4.132812 -0.945312 3.347656 -1.476562 2.671875 -2.15625 C 1.992188 -2.832031 1.460938 -3.613281 1.078125 -4.5 C 0.703125 -5.394531 0.515625 -6.359375 0.515625 -7.390625 C 0.515625 -8.410156 0.703125 -9.367188 1.078125 -10.265625 C 1.460938 -11.171875 1.992188 -11.960938 2.671875 -12.640625 C 3.347656 -13.316406 4.132812 -13.84375 5.03125 -14.21875 C 5.925781 -14.601562 6.882812 -14.796875 7.90625 -14.796875 L 8.578125 -14.796875 C 9.722656 -14.796875 10.789062 -14.546875 11.78125 -14.046875 C 12.78125 -13.554688 13.628906 -12.878906 14.328125 -12.015625 C 15.035156 -11.160156 15.519531 -10.171875 15.78125 -9.046875 L 6.21875 -9.046875 L 6.21875 -8.546875 C 6.21875 -7.648438 6.414062 -6.816406 6.8125 -6.046875 C 7.207031 -5.273438 7.753906 -4.628906 8.453125 -4.109375 C 9.160156 -3.585938 9.957031 -3.265625 10.84375 -3.140625 C 11.632812 -3.023438 12.40625 -3.097656 13.15625 -3.359375 C 13.914062 -3.617188 14.582031 -4.023438 15.15625 -4.578125 Z M 6.21875 -12.765625 L 6.21875 -9.15625 L 10.09375 -9.15625 L 10.09375 -12.765625 C 10.09375 -13.304688 9.90625 -13.757812 9.53125 -14.125 C 9.15625 -14.5 8.695312 -14.6875 8.15625 -14.6875 C 7.625 -14.6875 7.164062 -14.5 6.78125 -14.125 C 6.40625 -13.757812 6.21875 -13.304688 6.21875 -12.765625 Z M 6.21875 -12.765625 "/></g></g><g style="fill:#ffffff;fill-opacity:1;"><g transform="translate(225.401795, 256.446634)"><path style="stroke:none" d="M 15.15625 -4.578125 C 15.4375 -4.847656 15.660156 -5.132812 15.828125 -5.4375 C 15.378906 -4.15625 14.628906 -3.0625 13.578125 -2.15625 C 12.773438 -1.476562 11.890625 -0.953125 10.921875 -0.578125 C 9.953125 -0.210938 8.945312 -0.0195312 7.90625 0 C 6.882812 0 5.925781 -0.1875 5.03125 -0.5625 C 4.132812 -0.945312 3.347656 -1.476562 2.671875 -2.15625 C 1.992188 -2.832031 1.460938 -3.613281 1.078125 -4.5 C 0.703125 -5.394531 0.515625 -6.359375 0.515625 -7.390625 C 0.515625 -8.410156 0.703125 -9.367188 1.078125 -10.265625 C 1.460938 -11.171875 1.992188 -11.960938 2.671875 -12.640625 C 3.347656 -13.316406 4.132812 -13.84375 5.03125 -14.21875 C 5.925781 -14.601562 6.882812 -14.796875 7.90625 -14.796875 L 8.578125 -14.796875 C 9.722656 -14.796875 10.789062 -14.546875 11.78125 -14.046875 C 12.78125 -13.554688 13.628906 -12.878906 14.328125 -12.015625 C 15.035156 -11.160156 15.519531 -10.171875 15.78125 -9.046875 L 6.21875 -9.046875 L 6.21875 -8.546875 C 6.21875 -7.648438 6.414062 -6.816406 6.8125 -6.046875 C 7.207031 -5.273438 7.753906 -4.628906 8.453125 -4.109375 C 9.160156 -3.585938 9.957031 -3.265625 10.84375 -3.140625 C 11.632812 -3.023438 12.40625 -3.097656 13.15625 -3.359375 C 13.914062 -3.617188 14.582031 -4.023438 15.15625 -4.578125 Z M 6.21875 -12.765625 L 6.21875 -9.15625 L 10.09375 -9.15625 L 10.09375 -12.765625 C 10.09375 -13.304688 9.90625 -13.757812 9.53125 -14.125 C 9.15625 -14.5 8.695312 -14.6875 8.15625 -14.6875 C 7.625 -14.6875 7.164062 -14.5 6.78125 -14.125 C 6.40625 -13.757812 6.21875 -13.304688 6.21875 -12.765625 Z M 6.21875 -12.765625 "/></g></g><g style="fill:#ffffff;fill-opacity:1;"><g transform="translate(241.750892, 256.446634)"><path style="stroke:none" d="M 10.421875 -14.171875 L 10.421875 -14.0625 L 7.875 -14.0625 L 7.875 -1.21875 C 7.875 -0.90625 8.019531 -0.660156 8.3125 -0.484375 C 8.613281 -0.316406 8.867188 -0.347656 9.078125 -0.578125 C 8.316406 0.273438 7.351562 0.703125 6.1875 0.703125 C 5.457031 0.703125 4.769531 0.535156 4.125 0.203125 C 3.488281 -0.117188 2.972656 -0.597656 2.578125 -1.234375 C 2.191406 -1.867188 2 -2.617188 2 -3.484375 L 2 -14.0625 L 0.515625 -14.0625 L 0.515625 -14.171875 L 2 -14.171875 C 3.007812 -14.171875 3.851562 -14.28125 4.53125 -14.5 C 5.21875 -14.726562 5.78125 -15.003906 6.21875 -15.328125 C 6.664062 -15.660156 7.003906 -15.992188 7.234375 -16.328125 C 7.472656 -16.660156 7.640625 -16.9375 7.734375 -17.15625 C 7.828125 -17.382812 7.875 -17.5 7.875 -17.5 L 7.875 -14.171875 Z M 10.421875 -14.171875 "/></g></g><g style="fill:#ffffff;fill-opacity:1;"><g transform="translate(117.908252, 270.346653)"><path style="stroke:none" d="M 1.203125 0 L 1.203125 -8.296875 L 4.375 -8.296875 C 4.945312 -8.296875 5.445312 -8.1875 5.875 -7.96875 C 6.300781 -7.757812 6.632812 -7.457031 6.875 -7.0625 C 7.113281 -6.664062 7.234375 -6.191406 7.234375 -5.640625 C 7.234375 -4.960938 7.054688 -4.40625 6.703125 -3.96875 C 6.359375 -3.53125 5.882812 -3.234375 5.28125 -3.078125 L 7.359375 0 L 6.109375 0 L 4.078125 -2.984375 L 2.25 -2.984375 L 2.25 0 Z M 2.25 -3.96875 L 4.25 -3.96875 C 4.863281 -3.96875 5.335938 -4.113281 5.671875 -4.40625 C 6.003906 -4.695312 6.171875 -5.109375 6.171875 -5.640625 C 6.171875 -6.160156 6.003906 -6.566406 5.671875 -6.859375 C 5.335938 -7.160156 4.863281 -7.3125 4.25 -7.3125 L 2.25 -7.3125 Z M 2.25 -3.96875 "/></g></g><g style="fill:#ffffff;fill-opacity:1;"><g transform="translate(132.086291, 270.346653)"><path style="stroke:none" d="M 1.203125 0 L 1.203125 -8.296875 L 6.25 -8.296875 L 6.25 -7.328125 L 2.25 -7.328125 L 2.25 -4.703125 L 5.953125 -4.703125 L 5.953125 -3.75 L 2.25 -3.75 L 2.25 -0.96875 L 6.375 -0.96875 L 6.375 0 Z M 1.203125 0 "/></g></g><g style="fill:#ffffff;fill-opacity:1;"><g transform="translate(145.340207, 270.346653)"><path style="stroke:none" d="M 0.203125 0 L 3.609375 -8.296875 L 4.59375 -8.296875 L 8 0 L 6.90625 0 L 6.125 -1.890625 L 2.078125 -1.890625 L 1.3125 0 Z M 2.484375 -2.859375 L 5.734375 -2.859375 L 4.109375 -6.84375 Z M 2.484375 -2.859375 "/></g></g><g style="fill:#ffffff;fill-opacity:1;"><g transform="translate(159.648571, 270.346653)"><path style="stroke:none" d="M 1.203125 0 L 1.203125 -8.296875 L 2.25 -8.296875 L 2.25 -1 L 6.28125 -1 L 6.28125 0 Z M 1.203125 0 "/></g></g><g style="fill:#ffffff;fill-opacity:1;"><g transform="translate(172.404888, 270.346653)"><path style="stroke:none" d=""/></g></g><g style="fill:#ffffff;fill-opacity:1;"><g transform="translate(181.452884, 270.346653)"><path style="stroke:none" d="M 1.203125 0 L 1.203125 -8.296875 L 6.25 -8.296875 L 6.25 -7.328125 L 2.25 -7.328125 L 2.25 -4.703125 L 5.953125 -4.703125 L 5.953125 -3.75 L 2.25 -3.75 L 2.25 -0.96875 L 6.375 -0.96875 L 6.375 0 Z M 1.203125 0 "/></g></g><g style="fill:#ffffff;fill-opacity:1;"><g transform="translate(194.7068, 270.346653)"><path style="stroke:none" d="M 3.96875 0.15625 C 3.3125 0.15625 2.738281 0.046875 2.25 -0.171875 C 1.757812 -0.398438 1.378906 -0.71875 1.109375 -1.125 C 0.847656 -1.539062 0.71875 -2.015625 0.71875 -2.546875 L 1.75 -2.546875 C 1.769531 -2.015625 1.984375 -1.597656 2.390625 -1.296875 C 2.796875 -0.992188 3.320312 -0.84375 3.96875 -0.84375 C 4.550781 -0.84375 5.015625 -0.957031 5.359375 -1.1875 C 5.703125 -1.414062 5.875 -1.734375 5.875 -2.140625 C 5.875 -2.535156 5.707031 -2.847656 5.375 -3.078125 C 5.050781 -3.304688 4.515625 -3.507812 3.765625 -3.6875 C 2.742188 -3.9375 1.992188 -4.25 1.515625 -4.625 C 1.046875 -5.007812 0.8125 -5.523438 0.8125 -6.171875 C 0.8125 -6.867188 1.078125 -7.421875 1.609375 -7.828125 C 2.140625 -8.242188 2.859375 -8.453125 3.765625 -8.453125 C 4.703125 -8.453125 5.441406 -8.21875 5.984375 -7.75 C 6.523438 -7.289062 6.800781 -6.65625 6.8125 -5.84375 L 5.78125 -5.84375 C 5.769531 -6.34375 5.582031 -6.734375 5.21875 -7.015625 C 4.863281 -7.304688 4.378906 -7.453125 3.765625 -7.453125 C 3.171875 -7.453125 2.707031 -7.335938 2.375 -7.109375 C 2.039062 -6.878906 1.875 -6.566406 1.875 -6.171875 C 1.875 -5.828125 2.03125 -5.535156 2.34375 -5.296875 C 2.65625 -5.066406 3.210938 -4.851562 4.015625 -4.65625 C 5.078125 -4.394531 5.832031 -4.066406 6.28125 -3.671875 C 6.738281 -3.285156 6.96875 -2.789062 6.96875 -2.1875 C 6.96875 -1.46875 6.695312 -0.894531 6.15625 -0.46875 C 5.613281 -0.0507812 4.882812 0.15625 3.96875 0.15625 Z M 3.96875 0.15625 "/></g></g><g style="fill:#ffffff;fill-opacity:1;"><g transform="translate(208.482019, 270.346653)"><path style="stroke:none" d="M 3.21875 0 L 3.21875 -7.3125 L 0.40625 -7.3125 L 0.40625 -8.296875 L 7.0625 -8.296875 L 7.0625 -7.3125 L 4.25 -7.3125 L 4.25 0 Z M 3.21875 0 "/></g></g><g style="fill:#ffffff;fill-opacity:1;"><g transform="translate(222.055821, 270.346653)"><path style="stroke:none" d="M 0.203125 0 L 3.609375 -8.296875 L 4.59375 -8.296875 L 8 0 L 6.90625 0 L 6.125 -1.890625 L 2.078125 -1.890625 L 1.3125 0 Z M 2.484375 -2.859375 L 5.734375 -2.859375 L 4.109375 -6.84375 Z M 2.484375 -2.859375 "/></g></g><g style="fill:#ffffff;fill-opacity:1;"><g transform="translate(236.364185, 270.346653)"><path style="stroke:none" d="M 3.21875 0 L 3.21875 -7.3125 L 0.40625 -7.3125 L 0.40625 -8.296875 L 7.0625 -8.296875 L 7.0625 -7.3125 L 4.25 -7.3125 L 4.25 0 Z M 3.21875 0 "/></g></g><g style="fill:#ffffff;fill-opacity:1;"><g transform="translate(249.937987, 270.346653)"><path style="stroke:none" d="M 1.203125 0 L 1.203125 -8.296875 L 6.25 -8.296875 L 6.25 -7.328125 L 2.25 -7.328125 L 2.25 -4.703125 L 5.953125 -4.703125 L 5.953125 -3.75 L 2.25 -3.75 L 2.25 -0.96875 L 6.375 -0.96875 L 6.375 0 Z M 1.203125 0 "/></g></g></g></svg>