<svg width="321" height="307" viewBox="0 0 321 307" fill="none" xmlns="http://www.w3.org/2000/svg">
<path d="M80.3977 238.993C124.638 259.157 196.362 259.163 240.602 238.993C284.843 218.823 284.836 186.134 240.602 165.97C196.369 145.807 124.638 145.807 80.3977 165.97C36.1574 186.134 36.1639 218.83 80.3977 238.993Z" fill="#F5F5F5"/>
<path d="M240.448 224.092C248.596 224.092 255.201 221.081 255.201 217.368C255.201 213.655 248.596 210.645 240.448 210.645C232.3 210.645 225.695 213.655 225.695 217.368C225.695 221.081 232.3 224.092 240.448 224.092Z" fill="#EBEBEB"/>
<path d="M77.0399 218.332L82.2594 215.453C85.1735 213.178 87.3916 210.194 88.6794 206.814C90.2908 202.565 90.0661 199.335 88.9105 197.714C87.4917 195.719 83.813 196.069 83.6654 200.268C83.3572 208.545 80.8341 214.286 77.0399 218.332Z" fill="#407BFF"/>
<path opacity="0.2" d="M77.0399 218.332L82.2594 215.453C85.1735 213.178 87.3916 210.194 88.6794 206.814C90.2908 202.565 90.0661 199.335 88.9105 197.714C87.4917 195.719 83.813 196.069 83.6654 200.268C83.3572 208.545 80.8341 214.286 77.0399 218.332Z" fill="black"/>
<path d="M77.04 218.639C76.972 218.638 76.906 218.617 76.8516 218.578C76.7972 218.539 76.7571 218.485 76.7371 218.423C76.7171 218.36 76.7183 218.294 76.7404 218.232C76.7625 218.171 76.8045 218.118 76.8602 218.081C88.9298 210.099 86.5929 198.967 86.5672 198.856C86.5584 198.816 86.5579 198.774 86.5659 198.734C86.5738 198.693 86.5901 198.655 86.6136 198.62C86.6371 198.586 86.6676 198.556 86.7031 198.533C86.7387 198.51 86.7787 198.493 86.8208 198.485C86.863 198.476 86.9065 198.476 86.9488 198.483C86.9911 198.491 87.0315 198.507 87.0676 198.529C87.1036 198.552 87.1347 198.581 87.159 198.615C87.1833 198.649 87.2004 198.687 87.2092 198.727C87.2092 198.844 89.6745 210.356 77.2454 218.584C77.1851 218.623 77.1129 218.643 77.04 218.639Z" fill="white"/>
<path d="M66.5818 224.11C66.5818 224.11 64.7649 222.698 65.2015 220.782C65.638 218.866 66.8129 217.491 64.8034 215.023C62.794 212.555 62.2354 209.264 64.6365 207.483C66.4662 206.101 69.3231 208.054 70.3503 204.413C71.1079 201.748 70.8511 195.848 74.4013 193.883C77.9516 191.918 80.1793 194.877 79.6208 198.881C79.1329 202.46 78.4395 205.905 78.9788 206.863C80.0188 208.705 81.7972 208.453 81.7137 211.818C81.6431 214.949 78.5422 217.54 78.5422 217.54L66.5818 224.11Z" fill="#407BFF"/>
<path d="M72.5459 221.108C72.4674 221.107 72.3918 221.079 72.3329 221.03C72.274 220.98 72.2357 220.912 72.2249 220.837C71.3068 213.562 73.5089 200.999 75.3065 197.266C75.3216 197.225 75.3459 197.187 75.3776 197.155C75.4093 197.123 75.4477 197.098 75.4903 197.082C75.5329 197.066 75.5786 197.059 75.6244 197.061C75.6703 197.063 75.7151 197.074 75.7559 197.094C75.7942 197.111 75.8287 197.134 75.8573 197.164C75.8859 197.193 75.908 197.228 75.9224 197.266C75.9368 197.303 75.9431 197.343 75.9409 197.384C75.9388 197.424 75.9283 197.463 75.91 197.499C74.1316 201.183 72.0066 213.783 72.8862 220.739C72.8952 220.82 72.8706 220.9 72.8177 220.964C72.7647 221.027 72.6878 221.068 72.6037 221.077L72.5459 221.108Z" fill="white"/>
<path d="M72.3726 215.44C72.3235 215.443 72.2746 215.432 72.2314 215.41C70.0036 214.372 68.5912 210.67 68.5335 210.498C68.5177 210.459 68.5102 210.419 68.5112 210.378C68.5123 210.337 68.5219 210.296 68.5396 210.259C68.5572 210.221 68.5826 210.188 68.614 210.16C68.6455 210.132 68.6826 210.11 68.7229 210.096C68.7633 210.082 68.8062 210.076 68.849 210.079C68.8919 210.081 68.9339 210.091 68.9725 210.109C69.0111 210.127 69.0455 210.152 69.0737 210.183C69.102 210.214 69.1235 210.25 69.1369 210.289C69.1369 210.326 70.5172 213.911 72.5139 214.839C72.5794 214.869 72.6321 214.92 72.6635 214.982C72.6949 215.045 72.7031 215.116 72.6867 215.184C72.6702 215.252 72.6302 215.312 72.5732 215.356C72.5161 215.399 72.4454 215.422 72.3726 215.422V215.44Z" fill="white"/>
<path d="M72.3341 217.896C72.2698 217.896 72.207 217.878 72.1542 217.842C72.1014 217.807 72.0611 217.758 72.0388 217.7C72.0068 217.625 72.0071 217.541 72.0396 217.466C72.072 217.391 72.134 217.332 72.2121 217.301C75.9614 215.864 78.2983 211.597 78.3239 211.548C78.3631 211.475 78.4308 211.42 78.512 211.396C78.5933 211.371 78.6815 211.378 78.7573 211.416C78.8331 211.453 78.8902 211.518 78.9161 211.595C78.9419 211.673 78.9345 211.758 78.8953 211.83C78.7926 212.014 76.4236 216.349 72.4753 217.872C72.4313 217.892 72.3826 217.9 72.3341 217.896Z" fill="white"/>
<path d="M203.386 184.863C203.386 184.863 200.58 180.516 200.304 175.794C200.028 171.073 201.113 169.108 202.602 168.543C204.092 167.978 204.207 169.716 204.971 170.741C205.735 171.767 207.295 171.183 207.873 167.984C208.451 164.785 210.557 159.388 214.935 158.338C219.75 157.196 217.169 162.599 215.956 164.706C214.742 166.812 213.805 169.685 214.601 170.465C215.397 171.245 216.636 169.802 217.811 171.14C219.243 172.755 214.794 178.57 212.239 179.976L203.386 184.863Z" fill="#407BFF"/>
<path d="M207.231 183.04C207.189 183.038 207.148 183.028 207.109 183.012C207.071 182.995 207.036 182.971 207.008 182.941C206.979 182.911 206.957 182.877 206.942 182.839C206.928 182.801 206.921 182.761 206.923 182.72C207.358 175.125 209.834 167.765 214.113 161.353C214.138 161.32 214.169 161.291 214.205 161.27C214.241 161.248 214.281 161.234 214.323 161.227C214.365 161.221 214.408 161.223 214.449 161.233C214.49 161.243 214.529 161.261 214.563 161.286C214.63 161.333 214.675 161.404 214.688 161.484C214.702 161.563 214.682 161.644 214.633 161.709C210.431 168.028 207.999 175.274 207.571 182.751C207.569 182.791 207.558 182.831 207.54 182.867C207.521 182.904 207.496 182.936 207.464 182.963C207.432 182.99 207.396 183.01 207.356 183.023C207.316 183.037 207.273 183.042 207.231 183.04Z" fill="white"/>
<path d="M207.597 179.411C207.543 179.41 207.491 179.398 207.443 179.374C205.645 178.422 204.65 175.598 204.612 175.481C204.598 175.443 204.592 175.402 204.594 175.362C204.596 175.321 204.607 175.282 204.626 175.245C204.644 175.208 204.67 175.176 204.702 175.149C204.734 175.122 204.771 175.101 204.811 175.088C204.892 175.063 204.98 175.07 205.056 175.106C205.131 175.143 205.189 175.207 205.215 175.285C205.215 175.285 206.178 178.005 207.783 178.834C207.856 178.875 207.909 178.941 207.932 179.019C207.955 179.097 207.945 179.18 207.905 179.251C207.876 179.304 207.831 179.347 207.777 179.376C207.722 179.404 207.659 179.416 207.597 179.411Z" fill="white"/>
<path d="M207.912 177.55C207.841 177.55 207.772 177.526 207.716 177.484C207.66 177.442 207.621 177.383 207.604 177.317C207.593 177.278 207.591 177.238 207.597 177.198C207.603 177.159 207.617 177.121 207.638 177.086C207.66 177.052 207.688 177.022 207.722 176.999C207.756 176.975 207.794 176.958 207.835 176.949C212.47 175.825 214.075 173.504 214.088 173.48C214.111 173.445 214.14 173.416 214.175 173.392C214.21 173.369 214.249 173.352 214.29 173.344C214.332 173.335 214.375 173.334 214.416 173.341C214.458 173.348 214.498 173.363 214.534 173.384C214.57 173.406 214.601 173.434 214.625 173.468C214.65 173.501 214.667 173.538 214.676 173.578C214.685 173.618 214.686 173.659 214.679 173.699C214.672 173.739 214.656 173.777 214.633 173.811C214.563 173.915 212.894 176.353 207.995 177.544L207.912 177.55Z" fill="white"/>
<path d="M133.536 175.322C133.536 175.322 127.379 173.885 127.058 162.857C126.718 150.958 128.567 137.069 121.28 135.946C113.993 134.822 109.949 143.314 110.039 153.23C110.122 161.912 113.782 180.762 133.51 184.458L133.536 175.322Z" fill="#407BFF"/>
<path opacity="0.2" d="M133.536 175.322C133.536 175.322 127.379 173.885 127.058 162.857C126.718 150.958 128.567 137.069 121.28 135.946C113.993 134.822 109.949 143.314 110.039 153.23C110.122 161.912 113.782 180.762 133.51 184.458L133.536 175.322Z" fill="black"/>
<path d="M133.536 183.328H133.478C129.042 182.554 125.427 180.215 122.737 176.384C114.764 165.006 117.274 143.762 118.102 140.053C118.121 139.974 118.171 139.905 118.241 139.861C118.312 139.816 118.398 139.799 118.481 139.814C118.564 139.833 118.636 139.882 118.683 139.95C118.73 140.019 118.747 140.102 118.731 140.182C117.916 143.866 115.419 164.841 123.27 176.04C124.413 177.777 125.921 179.267 127.698 180.417C129.475 181.567 131.483 182.352 133.594 182.72C133.636 182.728 133.676 182.743 133.711 182.765C133.747 182.787 133.778 182.816 133.801 182.85C133.825 182.884 133.842 182.922 133.85 182.962C133.859 183.001 133.859 183.043 133.85 183.083C133.837 183.152 133.798 183.215 133.74 183.26C133.683 183.305 133.61 183.329 133.536 183.328Z" fill="white"/>
<path d="M133.536 211.627C127.174 212.45 116.844 212.438 110.88 207.943C104.916 203.449 106.161 199.581 108.453 197.966C110.745 196.351 112.735 194.509 108.793 190.923C104.851 187.338 98.5213 181.578 96.4669 172.939C94.4125 164.3 95.4269 158.897 99.4586 157.098C103.368 155.354 104.402 158.13 106.797 163.852C109.191 169.575 114.578 164.669 119.187 166.455C123.797 168.242 123.611 171.779 123.9 174.818C124.188 177.857 125.71 178.699 128.323 178.699C130.936 178.699 133.536 180.135 133.536 182.997V211.627Z" fill="#407BFF"/>
<path d="M133.536 201.595C133.508 201.6 133.48 201.6 133.452 201.595C133.176 201.521 126.596 199.691 117.011 191.273C106.803 182.309 101.988 168.862 101.937 168.727C101.912 168.65 101.92 168.566 101.958 168.494C101.996 168.422 102.062 168.367 102.142 168.34C102.222 168.315 102.309 168.321 102.385 168.356C102.461 168.392 102.519 168.455 102.547 168.531C102.591 168.666 107.362 181.965 117.447 190.819C126.898 199.126 133.555 200.987 133.626 201.005C133.666 201.016 133.704 201.035 133.737 201.061C133.77 201.086 133.797 201.117 133.817 201.152C133.838 201.188 133.85 201.226 133.855 201.267C133.86 201.307 133.856 201.347 133.844 201.386C133.823 201.448 133.782 201.502 133.726 201.539C133.671 201.577 133.604 201.596 133.536 201.595Z" fill="white"/>
<path d="M119.688 193.41C119.623 193.411 119.56 193.393 119.507 193.357C119.454 193.322 119.414 193.272 119.393 193.214C117.332 188.154 116.863 177.329 116.825 176.869C116.823 176.788 116.854 176.709 116.911 176.65C116.969 176.59 117.048 176.554 117.133 176.55C117.217 176.551 117.297 176.581 117.359 176.636C117.42 176.69 117.459 176.764 117.467 176.844C117.467 176.955 117.948 188.025 119.97 192.993C119.986 193.03 119.993 193.071 119.992 193.111C119.991 193.152 119.982 193.192 119.965 193.229C119.947 193.266 119.922 193.3 119.891 193.328C119.861 193.356 119.824 193.377 119.784 193.392C119.753 193.402 119.721 193.408 119.688 193.41Z" fill="white"/>
<path d="M119.637 200.686C119.045 200.69 118.453 200.662 117.865 200.6C117.823 200.595 117.782 200.582 117.745 200.562C117.708 200.543 117.675 200.516 117.649 200.484C117.623 200.452 117.603 200.416 117.592 200.376C117.58 200.337 117.577 200.296 117.582 200.256C117.587 200.216 117.601 200.177 117.621 200.141C117.642 200.106 117.67 200.075 117.704 200.05C117.737 200.025 117.775 200.006 117.816 199.995C117.857 199.984 117.9 199.981 117.942 199.986C118 199.986 123.977 200.637 126.718 197.966C126.746 197.934 126.782 197.907 126.821 197.889C126.861 197.87 126.904 197.859 126.949 197.857C126.993 197.855 127.037 197.862 127.078 197.877C127.119 197.893 127.157 197.916 127.189 197.945C127.22 197.975 127.245 198.011 127.261 198.05C127.278 198.089 127.285 198.131 127.284 198.174C127.283 198.216 127.272 198.257 127.253 198.296C127.234 198.334 127.207 198.368 127.174 198.396C125.19 200.354 121.73 200.686 119.637 200.686Z" fill="white"/>
<path d="M115.014 84.4189L114.321 80.5936L110.751 82.8409C110.425 82.2269 109.963 81.6884 109.397 81.2629L111.105 76.8421L107.895 76.1606L105.545 80.4585C104.695 80.5957 103.87 80.8523 103.099 81.2199L102.078 77.978L98.2646 80.8454L98.5149 84.6522C97.7384 85.4841 97.0341 86.3754 96.4092 87.3169L93.2634 87.1634L91.0549 91.8974L93.7577 93.0026C93.4756 93.9817 93.297 94.9856 93.2249 95.9989L89.7902 99.0198L90.4771 102.851L94.053 100.604C94.3773 101.217 94.84 101.754 95.4077 102.176L93.732 106.603L96.942 107.278L100.306 104.147C101.083 104.03 100.89 102.63 101.738 102.231L102.759 105.461L106.566 102.599L106.469 101.101C107.24 100.278 110.154 98.4672 110.784 97.5216L111.573 96.2936L113.782 91.5597L112.755 89.7791L111.612 87.4582L115.014 84.4189ZM103.362 97.012C100.435 99.2101 99.51 99.6952 99.0157 96.7541C98.5214 93.8131 100.197 89.3431 103.125 87.1389C106.052 84.9346 107.169 84.7811 107.696 87.716C108.222 90.651 106.296 94.8384 103.362 97.012Z" fill="#E0E0E0"/>
<path d="M107.92 76.1606L112.087 78.4569L109.737 82.7426L105.571 80.4463L107.92 76.1606Z" fill="#F5F5F5"/>
<path d="M118.488 82.89L114.918 85.1372L110.751 82.8409L114.321 80.5936L118.488 82.89Z" fill="#F5F5F5"/>
<path d="M117.916 93.8376L115.213 92.7386L111.047 90.4422L113.75 91.5413L117.916 93.8376Z" fill="#E0E0E0"/>
<path d="M93.7256 106.603L97.8922 108.893L99.5999 104.472L95.4333 102.176L93.7256 106.603Z" fill="#E0E0E0"/>
<path d="M106.887 107.757L102.726 105.461L101.706 102.231L105.872 104.527L106.887 107.757Z" fill="#E0E0E0"/>
<path d="M119.175 86.7152L118.488 82.89L114.918 85.1372C114.59 84.523 114.125 83.9845 113.557 83.5593L115.265 79.1385L112.087 78.4569L109.731 82.7549C108.881 82.8921 108.056 83.1486 107.285 83.5163L106.27 80.2866L102.457 83.154L102.707 86.9608C101.93 87.7987 101.225 88.6961 100.601 89.644L97.4492 89.4905L95.2407 94.2245L97.9436 95.3296C97.6639 96.3114 97.4855 97.3171 97.4107 98.3321L93.9824 101.31L94.6694 105.141L98.2389 102.894C98.5675 103.507 99.032 104.043 99.5999 104.466L97.8922 108.887L101.102 109.568L103.452 105.27C104.305 105.135 105.132 104.876 105.904 104.503L106.919 107.732L110.732 104.871L110.482 101.064C111.258 100.232 111.963 99.3412 112.588 98.3996L115.74 98.547L117.948 93.8131L115.207 92.714C115.491 91.7329 115.672 90.7271 115.746 89.7115L119.175 86.7152ZM107.535 99.3329C104.614 101.531 101.815 100.935 101.282 98.0005C100.749 95.0656 102.694 90.8966 105.622 88.6985C108.549 86.5003 111.342 87.102 111.875 90.037C112.408 92.9719 110.463 97.1348 107.535 99.3329Z" fill="#EBEBEB"/>
<path d="M106.27 80.2744L102.104 77.978L98.2903 80.8454L102.457 83.1417L106.27 80.2744Z" fill="#F5F5F5"/>
<path d="M98.2903 80.8454L98.5407 84.6522L102.707 86.9485L102.457 83.1417L98.2903 80.8454Z" fill="#E0E0E0"/>
<path d="M100.601 89.6133L96.4349 87.3169L93.2891 87.1696L97.4492 89.4659L100.601 89.6133Z" fill="#F5F5F5"/>
<path d="M93.289 87.1696L91.0806 91.8974L95.2407 94.1937L97.4492 89.4659L93.289 87.1696Z" fill="#E0E0E0"/>
<path d="M97.4107 98.2953L93.2505 95.9989L89.8158 99.0198L93.976 101.316L97.4107 98.2953Z" fill="#F5F5F5"/>
<path d="M94.6693 105.147L90.5027 102.851L89.8158 99.0198L93.976 101.316L94.6693 105.147Z" fill="#E0E0E0"/>
<path d="M112.087 78.4569L107.92 76.1606L111.105 76.8421L115.265 79.1385L112.087 78.4569Z" fill="#F5F5F5"/>
<path d="M96.3578 67.0549V61.3386L91.6006 63.3894C91.3486 62.4195 90.9135 61.5019 90.3166 60.6816L93.3148 54.9039L89.6554 52.8838L85.9189 58.2563C84.8777 58.1693 83.8285 58.2672 82.8245 58.5449L82.298 53.5776L77.1235 56.4389L76.6035 61.9649C75.4773 62.9192 74.4418 63.9671 73.5091 65.0963L69.7726 63.8683L66.1132 69.9346L69.1049 72.3906C68.5521 73.7276 68.1225 75.1082 67.8209 76.5167L63.0637 79.7156V85.4381L67.8209 83.3873C68.0729 84.3572 68.5081 85.2748 69.1049 86.0951L66.1261 91.879L69.7855 93.899L73.5219 88.5265C74.5632 88.6132 75.6122 88.5154 76.6163 88.2379L77.1364 93.2052L82.3109 90.344L82.8373 84.818C84.4524 84.2544 85.8831 83.2928 86.9846 82.0304L89.6682 82.933L93.3276 76.8728L91.0806 75.0308C91.5684 73.4948 91.7492 71.8846 91.6135 70.2846L96.3578 67.0549ZM79.7108 81.3366C75.7432 83.5286 73.2908 81.9506 73.2908 77.585C73.2908 73.2195 76.5714 67.8224 80.5454 65.6305C84.5194 63.4385 86.9204 65.0165 86.9204 69.4188C86.9204 73.8212 83.6848 79.1385 79.7108 81.3366Z" fill="#E0E0E0"/>
<path d="M93.8155 55.174L89.6554 52.8838L85.9189 58.2563L90.0791 60.5527L93.8155 55.174Z" fill="#F5F5F5"/>
<path d="M100.524 63.635L96.3578 61.3386L91.6006 63.3894L95.7672 65.6857L100.524 63.635Z" fill="#F5F5F5"/>
<path d="M81.2837 95.5016L77.1235 93.2052L76.6035 88.2379L80.7637 90.5343L81.2837 95.5016Z" fill="#E0E0E0"/>
<path d="M66.1068 91.879L70.2734 94.1753L73.2715 88.3976L69.105 86.1012L66.1068 91.879Z" fill="#E0E0E0"/>
<path d="M100.524 69.382V63.6657L95.7672 65.698C95.5179 64.7273 95.0826 63.8092 94.4832 62.9903L97.4814 57.2125L93.822 55.1863L90.0856 60.565C89.0443 60.4749 87.9946 60.5728 86.9911 60.8535L86.4647 55.874L81.2901 58.7352L80.7637 64.2612C79.6392 65.2172 78.6038 66.2649 77.6693 67.3926L73.9328 66.1646L70.2734 72.231L73.2716 74.687C72.7159 76.023 72.2861 77.4038 71.9876 78.813L67.2303 82.012V87.7345L71.9876 85.6837C72.2368 86.6545 72.6721 87.5726 73.2716 88.3915L70.2734 94.1692L73.9328 96.1893L77.6693 90.8167C78.7105 90.9038 79.7596 90.8059 80.7637 90.5282L81.2901 95.4954L86.4647 92.6342L86.9847 87.1082C88.1108 86.1538 89.1464 85.1059 90.0791 83.9768L93.8156 85.2048L97.475 79.1446L94.4768 76.6886C95.0324 75.3525 95.4621 73.9717 95.7608 72.5625L100.524 69.382ZM83.8774 83.6636C79.9034 85.8556 76.6806 84.075 76.6806 79.6911C76.6806 75.3071 79.8906 69.9714 83.8774 67.7733C87.8642 65.5752 91.0678 67.3619 91.0678 71.7459C91.0678 76.1299 87.845 81.4348 83.8774 83.633V83.6636Z" fill="#EBEBEB"/>
<path d="M73.509 65.1086L77.6692 67.4049L73.9327 66.1585L69.7726 63.856L73.509 65.1086Z" fill="#F0F0F0"/>
<path d="M69.7722 63.8623L66.1118 69.9306L70.277 72.2287L73.9374 66.1603L69.7722 63.8623Z" fill="#F5F5F5"/>
<path d="M66.1068 69.9223L70.2734 72.2187L73.2715 74.687L69.105 72.3967L66.1068 69.9223Z" fill="#E0E0E0"/>
<path d="M67.8209 76.5228L71.9875 78.8192L67.2303 82.0181L63.0637 79.7218L67.8209 76.5228Z" fill="#F5F5F5"/>
<path d="M63.0637 79.7218L67.2303 82.0181V87.7406L63.0637 85.4442V79.7218Z" fill="#E0E0E0"/>
<path d="M86.4646 55.874L82.2981 53.5776L77.1235 56.4389L81.2837 58.7352L86.4646 55.874Z" fill="#F5F5F5"/>
<path d="M139.879 219.843L200.227 186.515C200.36 186.47 200.475 186.387 200.557 186.277C200.638 186.167 200.682 186.036 200.682 185.901C200.682 185.766 200.638 185.635 200.557 185.525C200.475 185.415 200.36 185.331 200.227 185.287L194.648 182.217C194.302 182.05 193.921 181.964 193.534 181.964C193.147 181.964 192.766 182.05 192.42 182.217L132.053 215.514C131.92 215.559 131.805 215.642 131.723 215.752C131.642 215.862 131.598 215.993 131.598 216.128C131.598 216.263 131.642 216.394 131.723 216.504C131.805 216.614 131.92 216.697 132.053 216.742L137.651 219.812C137.994 219.983 138.374 220.075 138.761 220.08C139.148 220.086 139.531 220.004 139.879 219.843Z" fill="#E0E0E0"/>
<path d="M198.571 57.8388L144.155 87.888C143.346 88.3928 142.672 89.0728 142.19 89.8729C141.707 90.6729 141.427 91.5705 141.375 92.493V215.95C141.375 217.645 142.62 218.332 144.155 217.485L198.571 187.436C199.381 186.932 200.055 186.252 200.538 185.452C201.021 184.652 201.299 183.754 201.35 182.831V59.3738C201.35 57.6792 200.111 56.9915 198.571 57.8388Z" fill="#455A64"/>
<path d="M144.155 87.888L198.571 57.8388C199.944 57.0774 201.081 57.5502 201.312 58.8703C201.184 58.0403 200.873 57.2458 200.4 56.5388C199.928 55.8319 199.304 55.2287 198.571 54.7688L196.311 53.5408C195.449 53.1228 194.497 52.9049 193.531 52.9049C192.565 52.9049 191.612 53.1228 190.751 53.5408L136.329 83.5654C135.509 84.057 134.833 84.7393 134.364 85.5486L142.19 89.8466C142.659 89.0437 143.335 88.3693 144.155 87.888Z" fill="#37474F"/>
<path d="M133.536 211.627C133.589 212.55 133.868 213.447 134.351 214.247C134.834 215.047 135.507 215.728 136.316 216.232L138.582 217.46C139.366 217.836 140.225 218.048 141.101 218.084C141.977 218.12 142.852 217.979 143.667 217.669C142.383 218.148 141.362 217.442 141.362 215.925V92.493C141.394 91.5666 141.675 90.6638 142.177 89.8712L134.351 85.5732C133.856 86.3598 133.576 87.2529 133.536 88.1704V211.627Z" fill="#263238"/>
<path d="M145.651 104.337L197.094 75.9395C198.018 75.436 198.763 75.8474 198.763 76.8605V168.236C198.732 168.79 198.565 169.329 198.275 169.809C197.985 170.289 197.58 170.697 197.094 170.999L145.67 199.396C144.745 199.906 144.001 199.495 144.001 198.475V107.1C144.03 106.548 144.194 106.01 144.481 105.53C144.768 105.05 145.168 104.642 145.651 104.337Z" fill="white"/>
<path d="M171.363 77.5421C171.079 77.7203 170.842 77.9599 170.673 78.2414C170.503 78.523 170.405 78.8386 170.387 79.163C170.387 79.777 170.823 80.0042 171.363 79.7033C171.648 79.5261 171.885 79.2868 172.054 79.0051C172.224 78.7233 172.321 78.4071 172.338 78.0824C172.338 77.4868 171.902 77.2473 171.363 77.5421Z" fill="#37474F"/>
<path d="M171.363 189.566C170.24 190.269 169.307 191.214 168.637 192.325C167.968 193.437 167.582 194.683 167.511 195.964C167.511 198.316 169.238 199.274 171.363 198.095C172.485 197.392 173.418 196.447 174.087 195.336C174.756 194.224 175.143 192.978 175.215 191.697C175.227 189.345 173.494 188.387 171.363 189.566Z" fill="#37474F"/>
<path d="M162.124 87.0468C161.56 87.405 161.092 87.885 160.757 88.4482C160.423 89.0113 160.231 89.6418 160.198 90.2887C160.198 91.4799 161.071 91.9649 162.124 91.3693C162.694 91.0145 163.169 90.536 163.509 89.9726C163.849 89.4093 164.046 88.7771 164.082 88.1274C164.082 86.9363 163.209 86.4512 162.124 87.0468Z" fill="#37474F"/>
<path d="M166.92 86.6415C166.92 87.4397 167.562 87.7406 168.313 87.3169L181.153 80.213C181.551 79.9754 181.884 79.6514 182.126 79.2673C182.368 78.8832 182.512 78.4499 182.546 78.0026C182.546 77.2105 181.904 76.9096 181.153 77.3333L168.313 84.4373C167.916 84.6742 167.583 84.9973 167.341 85.3802C167.099 85.7632 166.955 86.1953 166.92 86.6415Z" fill="#37474F"/>
<path d="M137.876 108.291C138.331 108.575 138.711 108.957 138.983 109.408C139.255 109.858 139.412 110.363 139.442 110.882C139.442 111.84 138.743 112.227 137.876 111.748C137.422 111.463 137.044 111.08 136.773 110.63C136.502 110.18 136.345 109.675 136.316 109.157C136.316 108.205 137.016 107.818 137.876 108.291Z" fill="#37474F"/>
<path d="M137.876 119.822C138.331 120.106 138.711 120.488 138.983 120.939C139.255 121.389 139.412 121.894 139.442 122.413C139.442 123.365 138.743 123.752 137.876 123.279C137.422 122.994 137.044 122.611 136.773 122.161C136.502 121.711 136.345 121.206 136.316 120.688C136.316 119.73 137.016 119.343 137.876 119.822Z" fill="#37474F"/>
<path d="M137.388 108.524C137.844 108.808 138.223 109.191 138.495 109.641C138.767 110.091 138.925 110.596 138.954 111.116C138.954 112.067 138.255 112.454 137.388 111.981C136.932 111.697 136.553 111.315 136.281 110.865C136.009 110.415 135.851 109.909 135.822 109.39C135.828 108.432 136.528 108.064 137.388 108.524Z" fill="#455A64"/>
<path d="M137.388 120.049C137.844 120.334 138.224 120.717 138.496 121.168C138.769 121.62 138.926 122.126 138.954 122.647C138.954 123.598 138.255 123.985 137.388 123.506C136.931 123.223 136.551 122.841 136.279 122.391C136.007 121.94 135.85 121.435 135.822 120.915C135.828 119.963 136.528 119.577 137.388 120.049Z" fill="#455A64"/>
<path d="M209.176 79.7524C209.176 78.7332 208.432 78.3218 207.507 78.8314L201.35 82.2269L156.083 107.229C155.597 107.531 155.192 107.939 154.902 108.419C154.612 108.899 154.445 109.438 154.414 109.992V201.343C154.414 202.362 155.159 202.774 156.083 202.264L201.37 177.256L207.507 173.866C207.993 173.564 208.398 173.156 208.688 172.676C208.978 172.196 209.146 171.657 209.176 171.103V79.7524Z" fill="white"/>
<path d="M209.818 79.7525C209.859 79.4445 209.803 79.1321 209.659 78.8541C209.515 78.5762 209.288 78.3451 209.007 78.1898C208.726 78.0345 208.404 77.9619 208.08 77.981C207.756 78.0001 207.445 78.1101 207.186 78.2973L201.312 81.5453L155.762 106.719C155.176 107.073 154.688 107.558 154.341 108.133C153.995 108.707 153.799 109.354 153.772 110.017V201.343C153.746 201.649 153.808 201.957 153.95 202.233C154.093 202.508 154.311 202.742 154.581 202.909C154.811 203.036 155.072 203.102 155.338 203.099C155.715 203.088 156.082 202.984 156.404 202.798L201.986 177.624L207.847 174.388C208.431 174.031 208.916 173.545 209.262 172.971C209.608 172.397 209.806 171.753 209.838 171.091L209.818 79.7525ZM201.325 176.574L200.798 176.869L155.788 201.724C155.712 201.779 155.624 201.818 155.531 201.837C155.438 201.856 155.341 201.855 155.248 201.834C155.165 201.785 155.082 201.613 155.082 201.331V109.992C155.115 109.546 155.253 109.113 155.487 108.726C155.72 108.339 156.043 108.008 156.43 107.757L201.395 82.89L207.815 79.3349C207.891 79.2794 207.979 79.2406 208.072 79.2215C208.165 79.2024 208.262 79.2034 208.355 79.2244C208.438 79.2735 208.522 79.4455 208.522 79.7279V171.103C208.488 171.549 208.35 171.982 208.116 172.369C207.883 172.756 207.56 173.088 207.173 173.338L201.312 176.574H201.325Z" fill="#407BFF"/>
<path d="M181.795 100.978C187.573 97.7979 192.228 100.364 192.228 106.744C192.228 113.123 187.554 120.866 181.795 124.022C176.036 127.178 171.363 124.636 171.363 118.263C171.363 111.889 176.036 104.165 181.795 100.978Z" fill="#407BFF"/>
<path d="M181.795 105.989C183.663 104.957 185.178 105.792 185.178 107.831C185.115 108.954 184.776 110.047 184.188 111.021C183.6 111.995 182.78 112.822 181.795 113.437C179.927 114.468 178.412 113.633 178.412 111.595C178.475 110.472 178.815 109.379 179.403 108.405C179.99 107.431 180.81 106.603 181.795 105.989Z" fill="#407BFF"/>
<path d="M188.388 116.992C188.388 113.602 185.904 112.227 182.829 113.922L180.903 114.984C177.834 116.678 175.343 120.804 175.343 124.194V125.109C177.121 125.667 179.356 125.367 181.763 124.022C184.43 122.449 186.685 120.313 188.356 117.777L188.388 116.992Z" fill="#407BFF"/>
<path opacity="0.7" d="M181.795 105.989C183.663 104.957 185.178 105.792 185.178 107.831C185.115 108.954 184.776 110.047 184.188 111.021C183.6 111.995 182.78 112.822 181.795 113.437C179.927 114.468 178.412 113.633 178.412 111.595C178.475 110.472 178.815 109.379 179.403 108.405C179.99 107.431 180.81 106.603 181.795 105.989Z" fill="white"/>
<path opacity="0.7" d="M188.388 116.992C188.388 113.602 185.904 112.227 182.829 113.922L180.903 114.984C177.834 116.678 175.343 120.804 175.343 124.194V125.109C177.121 125.667 179.356 125.367 181.763 124.022C184.43 122.449 186.685 120.313 188.356 117.777L188.388 116.992Z" fill="white"/>
<path d="M161.611 138.052L175.035 130.641C175.677 130.303 176.146 130.573 176.146 131.255V131.678C176.125 132.047 176.014 132.407 175.821 132.727C175.628 133.047 175.359 133.319 175.035 133.52L161.611 140.931C161.001 141.269 160.5 140.993 160.5 140.317V139.894C160.521 139.525 160.632 139.166 160.825 138.846C161.018 138.526 161.287 138.254 161.611 138.052Z" fill="#407BFF"/>
<path opacity="0.1" d="M161.611 138.052L175.035 130.641C175.677 130.303 176.146 130.573 176.146 131.255V131.678C176.125 132.047 176.014 132.407 175.821 132.727C175.628 133.047 175.359 133.319 175.035 133.52L161.611 140.931C161.001 141.269 160.5 140.993 160.5 140.317V139.894C160.521 139.525 160.632 139.166 160.825 138.846C161.018 138.526 161.287 138.254 161.611 138.052Z" fill="black"/>
<path d="M161.059 146.998L201.671 124.574C201.973 124.403 202.224 124.538 202.224 124.881V129.413C202.212 129.597 202.157 129.776 202.061 129.935C201.965 130.095 201.832 130.232 201.671 130.334L161.059 152.757C160.75 152.929 160.5 152.788 160.5 152.45V147.919C160.511 147.734 160.567 147.554 160.664 147.394C160.761 147.235 160.896 147.099 161.059 146.998Z" fill="#407BFF"/>
<path opacity="0.2" d="M161.059 146.998L201.671 124.574C201.973 124.403 202.224 124.538 202.224 124.881V129.413C202.212 129.597 202.157 129.776 202.061 129.935C201.965 130.095 201.832 130.232 201.671 130.334L161.059 152.757C160.75 152.929 160.5 152.788 160.5 152.45V147.919C160.511 147.734 160.567 147.554 160.664 147.394C160.761 147.235 160.896 147.099 161.059 146.998Z" fill="white"/>
<path d="M161.611 158.209L175.035 150.798C175.677 150.461 176.146 150.737 176.146 151.412V151.836C176.126 152.205 176.015 152.565 175.822 152.885C175.629 153.205 175.359 153.477 175.035 153.678L161.611 161.089C161.001 161.433 160.5 161.157 160.5 160.475V160.051C160.522 159.683 160.634 159.324 160.827 159.004C161.019 158.684 161.288 158.412 161.611 158.209Z" fill="#407BFF"/>
<path opacity="0.1" d="M161.611 158.209L175.035 150.798C175.677 150.461 176.146 150.737 176.146 151.412V151.836C176.126 152.205 176.015 152.565 175.822 152.885C175.629 153.205 175.359 153.477 175.035 153.678L161.611 161.089C161.001 161.433 160.5 161.157 160.5 160.475V160.051C160.522 159.683 160.634 159.324 160.827 159.004C161.019 158.684 161.288 158.412 161.611 158.209Z" fill="black"/>
<path d="M161.059 167.155L201.671 144.732C201.973 144.56 202.224 144.701 202.224 145.039V149.57C202.212 149.754 202.157 149.933 202.061 150.093C201.965 150.253 201.832 150.389 201.671 150.491L161.059 172.915C160.75 173.087 160.5 172.952 160.5 172.608V168.076C160.511 167.892 160.567 167.712 160.664 167.552C160.761 167.392 160.896 167.256 161.059 167.155Z" fill="#407BFF"/>
<path opacity="0.2" d="M161.059 167.155L201.671 144.732C201.973 144.56 202.224 144.701 202.224 145.039V149.57C202.212 149.754 202.157 149.933 202.061 150.093C201.965 150.253 201.832 150.389 201.671 150.491L161.059 172.915C160.75 173.087 160.5 172.952 160.5 172.608V168.076C160.511 167.892 160.567 167.712 160.664 167.552C160.761 167.392 160.896 167.256 161.059 167.155Z" fill="white"/>
<path d="M177.256 169.728L193.306 160.88C193.948 160.536 194.423 160.813 194.423 161.494V166.234C194.402 166.604 194.29 166.963 194.096 167.284C193.902 167.604 193.631 167.875 193.306 168.076L177.256 176.93C176.614 177.268 176.146 176.992 176.146 176.316V171.57C176.168 171.201 176.28 170.843 176.473 170.523C176.666 170.203 176.934 169.931 177.256 169.728Z" fill="#407BFF"/>
<path opacity="0.1" d="M177.256 169.728L193.306 160.88C193.948 160.536 194.423 160.813 194.423 161.494V166.234C194.402 166.604 194.29 166.963 194.096 167.284C193.902 167.604 193.631 167.875 193.306 168.076L177.256 176.93C176.614 177.268 176.146 176.992 176.146 176.316V171.57C176.168 171.201 176.28 170.843 176.473 170.523C176.666 170.203 176.934 169.931 177.256 169.728Z" fill="black"/>
<path d="M215.263 149.724C215.263 149.724 207.379 139.323 206.917 138.058C206.551 137.125 206.917 135.737 207.032 135.092C207.148 134.448 207.25 133.011 207.366 132.636C207.559 131.936 206.615 132.078 206.082 132.716C205.549 133.355 205.369 134.632 205.093 134.841C204.817 135.049 202.718 132.121 201.62 130.77C200.522 129.419 199.835 128.596 199.161 129.1C198.68 129.462 199.039 130.248 199.835 131.402C200.3 132.024 200.729 132.669 201.119 133.336C201.241 133.588 200.586 133.606 200.233 134.128C199.957 134.534 200.233 135.191 199.848 135.504C199.611 135.676 199.449 135.926 199.392 136.206C199.335 136.485 199.388 136.775 199.54 137.02C200.255 138.094 201.176 139.027 202.256 139.771C203.437 140.551 203.912 140.827 204.612 141.889C205.312 142.951 211.59 153.801 212.014 154.452C212.438 155.103 213.253 156.429 214.492 156.466C215.731 156.502 225.875 148.152 226.395 147.735C228.064 146.402 228.597 146.212 228.879 147.409C228.977 147.835 229.05 148.265 229.098 148.699C229.297 150.221 230.382 155.661 230.382 155.661C230.382 155.661 235.518 158.037 239.736 156.889C243.954 155.741 245.379 154.028 245.379 154.028L243.267 150.737C243.838 149.38 246.477 143.879 247.33 140.029L234.105 137.984C233.836 137.929 233.399 137.825 232.821 137.683C232.096 137.499 230.253 136.891 228.86 138.058C224.315 141.846 215.275 149.724 215.275 149.724" fill="#FFA8A7"/>
<path d="M241.482 213.543L239.113 216.693C240.19 217.174 241.366 217.415 242.554 217.399C244.679 217.473 245.263 216.785 245.34 216.65C245.7 215.913 245.141 214.587 244.987 213.445L241.482 213.543Z" fill="#37474F"/>
<path d="M239.248 215.182C239.248 215.182 236.372 215.004 234.388 214.771C232.404 214.538 230.831 215.459 231.293 216.239C231.756 217.018 232.853 217.669 234.561 218.216C236.018 218.688 237.771 219.026 239.286 219.444C240.801 219.861 241.854 220.408 242.734 220.113C243.716 219.787 244.14 219.413 244.056 218.725C243.842 217.747 243.576 216.78 243.26 215.827L239.248 215.182Z" fill="#37474F"/>
<path d="M245.34 210.381C245.34 210.381 244.981 213.242 244.955 213.856C244.929 214.47 242.034 214.667 241.482 213.543L241.392 210.043L245.34 210.381Z" fill="#F28F8F"/>
<path d="M242.426 212.137L243.459 216.484C243.459 216.484 243.556 217.012 241.193 217.35C238.83 217.688 235.12 216.165 234.484 215.858C233.849 215.551 233.778 214.931 236.102 215.053C238.426 215.176 239.248 215.182 239.248 215.182L238.49 213.261L242.426 212.137Z" fill="#FFA8A7"/>
<path d="M247.292 139.992L248.929 139.556C248.929 139.556 252.351 149.914 252.73 150.915C253.108 151.916 253.539 152.972 252.8 154.206C251.921 155.674 247.292 161.574 247.292 161.574L244.352 158.823L247.69 152.978L244.737 147.268L247.292 139.992Z" fill="#F28F8F"/>
<path d="M230.478 126.539C230.094 125.85 229.899 125.079 229.912 124.299C229.924 123.518 230.143 122.753 230.549 122.075C232.179 119.184 235.813 117.777 240.14 118.312C242.143 118.563 244.506 120.154 245.796 122.53C247.221 125.164 247.356 130.469 247.722 132.477L230.478 126.539Z" fill="#37474F"/>
<path d="M230.362 127.675C230.362 127.675 229.335 129.548 229.515 129.72C229.781 129.869 230.072 129.972 230.375 130.027L230.362 127.675Z" fill="#FFA8A7"/>
<path d="M233.483 121.756C232.365 122.45 230.439 123.727 230.356 127.933C230.266 132.231 230.908 133.649 231.576 134.147C232.025 134.484 234.664 134.312 235.794 134.061C236.924 133.809 240.179 132.268 241.353 129.929C242.734 127.178 242.451 123.175 240.403 121.947C239.361 121.357 238.179 121.03 236.969 120.997C235.758 120.964 234.559 121.225 233.483 121.756Z" fill="#FFA8A7"/>
<path d="M245.34 154.003C247.318 156.951 249.192 159.529 249.603 162.857C250.451 169.851 247.677 177.845 247.08 183.021C248.203 184.493 248.85 186.248 248.942 188.068C248.942 190.211 245.34 210.381 245.34 210.381C245.34 210.381 242.721 211.142 241.392 210.043L238.92 172.939L240.204 168.42L245.34 154.003Z" fill="#407BFF"/>
<path opacity="0.2" d="M245.34 154.003C247.318 156.951 249.192 159.529 249.603 162.857C250.451 169.851 247.677 177.845 247.08 183.021C248.203 184.493 248.85 186.248 248.942 188.068C248.942 190.211 245.34 210.381 245.34 210.381C245.34 210.381 242.721 211.142 241.392 210.043L238.92 172.939L240.204 168.42L245.34 154.003Z" fill="black"/>
<path d="M238.92 172.939L240.204 168.42C242.663 167.801 245.034 166.9 247.266 165.737C247.266 165.737 245.931 168.064 242.092 169.341L240.108 175.143L239.941 188.437L238.92 172.939Z" fill="#407BFF"/>
<path opacity="0.3" d="M238.92 172.939L240.204 168.42C242.663 167.801 245.034 166.9 247.266 165.737C247.266 165.737 245.931 168.064 242.092 169.341L240.108 175.143L239.941 188.437L238.92 172.939Z" fill="black"/>
<path d="M245.34 154.003C246.4 155.661 248.929 158.486 248.39 161.206C247.748 164.497 245.886 166.812 240.224 168.42L234.908 186.84C234.908 186.84 237.675 189.296 238.522 191.672C239.37 194.049 242.426 212.149 242.426 212.149C242.426 212.149 241.475 213.629 238.49 213.273C238.49 213.273 228.083 190.555 227.351 189.075C226.463 187.577 226.152 185.828 226.472 184.132C226.799 181.75 230.324 155.674 230.324 155.674L245.34 154.003Z" fill="#407BFF"/>
<path opacity="0.2" d="M245.34 154.003C246.4 155.661 248.929 158.486 248.39 161.206C247.748 164.497 245.886 166.812 240.224 168.42L234.908 186.84C234.908 186.84 237.675 189.296 238.522 191.672C239.37 194.049 242.426 212.149 242.426 212.149C242.426 212.149 241.475 213.629 238.49 213.273C238.49 213.273 228.083 190.555 227.351 189.075C226.463 187.577 226.152 185.828 226.472 184.132C226.799 181.75 230.324 155.674 230.324 155.674L245.34 154.003Z" fill="black"/>
<path d="M247.292 139.992L234.067 137.947C233.797 137.892 233.361 137.788 232.783 137.647C232.783 137.647 232.218 145.579 228.822 147.397C228.905 147.778 228.976 148.201 229.04 148.686C229.239 150.209 230.324 155.649 230.324 155.649C230.324 155.649 235.46 158.025 239.678 156.877C243.896 155.729 245.321 154.016 245.321 154.016L243.209 150.725C243.799 149.355 246.457 143.854 247.292 139.992Z" fill="#407BFF"/>
<path opacity="0.7" d="M247.292 139.992L234.067 137.947C233.797 137.892 233.361 137.788 232.783 137.647C232.783 137.647 232.218 145.579 228.822 147.397C228.905 147.778 228.976 148.201 229.04 148.686C229.239 150.209 230.324 155.649 230.324 155.649C230.324 155.649 235.46 158.025 239.678 156.877C243.896 155.729 245.321 154.016 245.321 154.016L243.209 150.725C243.799 149.355 246.457 143.854 247.292 139.992Z" fill="white"/>
<path d="M243.806 149.417C242.05 150.426 240.209 151.294 238.304 152.014C240.033 151.981 241.726 151.534 243.228 150.712L243.806 149.417Z" fill="#407BFF"/>
<path d="M233.155 121.965C233.155 121.965 232.513 125.956 234.028 128.301C234.028 128.301 234.593 126.711 235.999 127.012C237.405 127.313 237.482 129.087 236.494 130.082C236.242 130.361 235.914 130.567 235.546 130.675C235.178 130.784 234.785 130.791 234.413 130.696C234.413 130.696 234.189 133.582 234.067 136.001C233.945 138.42 233.277 143.694 236.121 145.825C238.965 147.956 246.104 148.705 249.449 144.235C251.311 141.748 248.839 137.352 247.69 132.421C246.631 127.89 246.034 121.173 241.007 120.092C235.98 119.012 233.155 121.965 233.155 121.965Z" fill="#37474F"/>
<path d="M251.6 67.4356L250.54 68.0496C250.629 67.6892 250.679 67.3208 250.688 66.9506C250.688 64.8937 249.179 64.0648 247.318 65.1086C246.751 65.4354 246.245 65.8505 245.822 66.3366C245.822 63.5736 243.793 62.4499 241.289 63.8314C239.97 64.6544 238.872 65.7632 238.084 67.0678C237.297 68.3725 236.842 69.8364 236.757 71.3407C236.757 71.4819 236.757 71.617 236.757 71.752C236.112 71.6744 235.459 71.818 234.914 72.1573C233.933 72.7687 233.117 73.5927 232.531 74.5624C231.945 75.5322 231.607 76.6203 231.544 77.7385C231.543 77.9985 231.571 78.2578 231.627 78.5122L231.062 78.8253C229.528 79.6726 228.282 81.3243 228.282 82.5093C228.282 83.6943 229.528 83.9768 231.062 83.1233L251.606 71.795C253.141 70.9477 254.386 69.296 254.386 68.111C254.386 66.926 253.134 66.5822 251.6 67.4356Z" fill="#EBEBEB"/>
</svg>
